# Blender v2.80 (sub 39) OBJ File: ''
# www.blender.org
mtllib triangle_outline.mtl
o Cylinder
v -0.000000 -0.010000 -0.768470
v -0.000000 0.010000 -0.768470
v 0.665514 -0.010000 0.384235
v 0.665514 0.010000 0.384235
v -0.665514 -0.010000 0.384235
v -0.665514 0.010000 0.384235
v 0.000000 -0.010000 -1.000000
v 0.866025 -0.010000 0.500000
v 0.866025 0.010000 0.500000
v 0.000000 0.010000 -1.000000
v -0.866025 -0.010000 0.500000
v -0.866025 0.010000 0.500000
vt 1.000000 0.500000
vt 1.000000 1.000000
vt 0.666667 1.000000
vt 0.666667 0.500000
vt 0.333333 1.000000
vt 0.333333 0.500000
vt 0.750000 0.434433
vt 0.909723 0.157784
vt 0.409723 0.157784
vt 0.250000 0.434433
vt -0.000000 1.000000
vt -0.000000 0.500000
vt 0.590277 0.157784
vt 0.090277 0.157784
vt 0.750000 0.490000
vt 0.957846 0.130000
vt 0.457846 0.130000
vt 0.250000 0.490000
vt 0.542154 0.130000
vt 0.042154 0.130000
vn 0.8660 0.0000 -0.5000
vn -0.0000 0.0000 1.0000
vn -0.8660 0.0000 0.5000
vn -0.8660 0.0000 -0.5000
vn 0.8660 0.0000 0.5000
vn 0.0000 -1.0000 0.0000
vn 0.0000 1.0000 0.0000
vn 0.0000 0.0000 -1.0000
usemtl None
s off
f 7/1/1 10/2/1 9/3/1 8/4/1
f 8/4/2 9/3/2 12/5/2 11/6/2
f 1/7/3 3/8/3 4/9/3 2/10/3
f 11/6/4 12/5/4 10/11/4 7/12/4
f 5/13/5 1/7/5 2/10/5 6/14/5
f 3/8/6 1/7/6 7/15/6 8/16/6
f 2/10/7 4/9/7 9/17/7 10/18/7
f 5/13/6 3/8/6 8/16/6 11/19/6
f 4/9/7 6/14/7 12/20/7 9/17/7
f 1/7/6 5/13/6 11/19/6 7/15/6
f 6/14/7 2/10/7 10/18/7 12/20/7
f 3/8/8 5/13/8 6/14/8 4/9/8
